# xmcd
#
# Track frame offsets: 
#        150
#        11793
#        29861
#        45361
#        57976
#        78493
#        92351
#        106818
#        136311
#        159008
#        173346
#        191921
#        206006
#        225501
#        243283
#        255133
#
# Disc length: 3642 seconds
#
# Revision: 6
# Processed by: cddbd v1.5.2PL0 Copyright (c) Steve Scherf et al.
# Submitted via: ExactAudioCopy v0.99pb4
#
DISCID=bc0e3810
DTITLE=Erroll Garner (1921-1977) - Erroll Garner's finest hour (1946-1
DTITLE=955)
DYEAR=2003
DGENRE=Jazz
TTITLE0=Oh, Lady, Be Good!
TTITLE1=I've Got the World on a String
TTITLE2=Russian Lullaby
TTITLE3=Misty
TTITLE4=Part-time Blues
TTITLE5=Don't Blame Me
TTITLE6=Exactly Like You
TTITLE7=Mambo Garner
TTITLE8=All My Loves Are You
TTITLE9=There's a Small Hotel
TTITLE10=Night and Day
TTITLE11=Embraceable You
TTITLE12=In a Mellow Tone
TTITLE13=Sweet and Lovely
TTITLE14=Rosalie
TTITLE15=Is You Is or Is You Ain't My Baby?
EXTD=YEAR: 2003
EXTT0=
EXTT1=
EXTT2=
EXTT3=
EXTT4=
EXTT5=
EXTT6=
EXTT7=
EXTT8=
EXTT9=
EXTT10=
EXTT11=
EXTT12=
EXTT13=
EXTT14=
EXTT15=
PLAYORDER=
